<?xml version="1.0" encoding="utf-8"?>
<svg version="1.1" xmlns="http://www.w3.org/2000/svg" xmlns:xlink="http://www.w3.org/1999/xlink" x="0px" y="0px"   viewBox="0 0 496.2 496.2" style="enable-background:new 0 0 496.2 496.2;" xml:space="preserve">
  <style type="text/css">
    @keyframes pulsate {
      0% {
        opacity: 0.0;
      }

      50% {
        opacity: 1.0;
      }

      100% {
        opacity: 0.0;
      }
    }

    .heaven-night {
      fill:#1C282D;
    }

    .heaven-day { 
      fill:#9CECFF;
    }

    .moon {
      fill:#F9EFC7;
    }

    .star {
      fill:#E4C045;
      animation: pulsate 5s ease-out;
      animation-iteration-count: infinite;
    }

    .cloud {
      fill:#FFFFFF;
    }

    .sun {
      fill:#E4C045;
    }
  </style>

  <path class="heaven-night" d="M2,247.6C2,112,111.9,2,247.5,2S493,112,493,247.6H2z"/>
  <path class="heaven-day" d="M247.5,493.2C111.9,493.2,2,383.2,2,247.6h491C493,383.2,383.1,493.2,247.5,493.2z"/>
  <path class="moon" d="M247.5,374.4c-70.1,0-126.8-56.8-126.8-126.8c0-70.1,56.8-126.8,126.8-126.8s126.8,56.8,126.8,126.8  C374.3,317.7,317.6,374.4,247.5,374.4z"/>
  <g>
    <path class="sun" d="M247.5,374.4c-70.1,0-126.8-56.8-126.8-126.8h253.5C374.3,317.7,317.6,374.4,247.5,374.4z"/>
  </g>
  <path class="cloud" d="M396.6,349.8c0.5,0.5,1,0.9,1.5,1.3c6.9,5.3,16.8,3.9,22-3c4.2-5.6,4.2-13,0.4-18.5c1.7-0.9,3.3-2.1,4.5-3.7 c4.2-5.6,3.2-13.5-2.3-17.8c1.8-5.9,0.3-12.1-4.1-15.5c-6.1-4.6-15.6-2.4-21.2,5l-19.8,26c-6.7,8.8-6.2,20.3,1.1,25.8  C383.6,353.2,390.6,353.1,396.6,349.8L396.6,349.8z"/>
  <path class="cloud" d="M61.7,357.4c-0.7,0.5-1.3,1.1-2,1.7c-8.2,8.2-8.2,21.5,0,29.7c6.6,6.6,16.5,7.9,24.4,3.9 c0.8,2.4,2.2,4.7,4.1,6.6c6.6,6.6,17.3,6.7,24,0.2c7.5,3.4,15.9,2.6,21.2-2.7c7.2-7.2,6-20.2-2.8-29L99.8,337 c-10.4-10.4-25.8-11.8-34.3-3.3C59.5,339.7,58.4,348.8,61.7,357.4L61.7,357.4z"/>
  <path class="cloud" d="M232,458.1c0.1,0.6,0.2,1.2,0.3,1.8c1.8,8,9.7,13,17.7,11.2c6.4-1.4,10.9-6.9,11.5-13.1 c1.8,0.4,3.6,0.5,5.5,0.1c6.4-1.4,10.5-7.8,9.2-14.2c4.9-3.2,7.6-8.5,6.4-13.7c-1.6-7.1-9.8-11.2-18.3-9.3l-30.1,6.7 c-10.1,2.3-16.8,10.9-14.9,19.2C220.6,452.7,225.6,456.8,232,458.1L232,458.1z"/>
  <path class="star" d="M31.7,232.2c0-0.3,0.1-0.6,0.2-0.9c0.1-0.2,0.1-0.4,0.2-0.6c0-0.1,0-0.1-0.1-0.2c-0.3-0.2-0.7-0.5-0.9-0.7 c-0.1-0.1-0.3-0.2-0.4-0.4c-0.1-0.2-0.1-0.3,0.1-0.4c0.2-0.1,0.4-0.1,0.5-0.1c0.4-0.1,0.8-0.1,1.2-0.1c0.1,0,0.1,0,0.1-0.1 c0.1-0.4,0.2-0.8,0.4-1.1c0.1-0.2,0.1-0.3,0.3-0.4c0.2-0.2,0.4-0.2,0.5,0c0.2,0.2,0.3,0.4,0.4,0.6c0.1,0.3,0.2,0.6,0.3,0.9 c0,0.1,0,0.1,0.1,0.1c0.5,0,0.9,0,1.4,0.1c0.1,0,0.3,0,0.4,0.1c0.1,0.1,0.1,0.1,0.1,0.2c-0.1,0.1-0.1,0.2-0.2,0.3 c-0.3,0.3-0.7,0.6-1.1,0.9c-0.1,0.1-0.1,0.1-0.1,0.2c0.1,0.4,0.3,0.8,0.3,1.2c0,0.2,0.1,0.3,0,0.5c0,0.1-0.1,0.2-0.2,0.2 c-0.2,0-0.4-0.1-0.6-0.2c-0.3-0.2-0.7-0.4-1-0.6c-0.1-0.1-0.1-0.1-0.2,0c-0.4,0.3-0.7,0.5-1.1,0.7c-0.1,0.1-0.3,0.1-0.4,0.2 c-0.1,0-0.2,0-0.2-0.2C31.7,232.3,31.7,232.3,31.7,232.2z"/>
  <path class="star" d="M380.7,232.2c0-0.3,0.1-0.6,0.2-0.9c0.1-0.2,0.1-0.4,0.2-0.6c0-0.1,0-0.1-0.1-0.2c-0.3-0.2-0.7-0.5-0.9-0.7 c-0.1-0.1-0.3-0.2-0.4-0.4c-0.1-0.2-0.1-0.3,0.1-0.4c0.2-0.1,0.4-0.1,0.5-0.1c0.4-0.1,0.8-0.1,1.2-0.1c0.1,0,0.1,0,0.1-0.1 c0.1-0.4,0.2-0.8,0.4-1.1c0.1-0.2,0.1-0.3,0.3-0.4c0.2-0.2,0.4-0.2,0.5,0c0.2,0.2,0.3,0.4,0.4,0.6c0.1,0.3,0.2,0.6,0.3,0.9 c0,0.1,0,0.1,0.1,0.1c0.5,0,0.9,0,1.4,0.1c0.1,0,0.3,0,0.4,0.1c0.1,0.1,0.1,0.1,0.1,0.2c-0.1,0.1-0.1,0.2-0.2,0.3 c-0.3,0.3-0.7,0.6-1.1,0.9c-0.1,0.1-0.1,0.1-0.1,0.2c0.1,0.4,0.3,0.8,0.3,1.2c0,0.2,0.1,0.3,0,0.5c0,0.1-0.1,0.2-0.2,0.2 c-0.2,0-0.4-0.1-0.6-0.2c-0.3-0.2-0.7-0.4-1-0.6c-0.1-0.1-0.1-0.1-0.2,0c-0.4,0.3-0.7,0.5-1.1,0.7c-0.1,0.1-0.3,0.1-0.4,0.2 c-0.1,0-0.2,0-0.2-0.2C380.7,232.3,380.7,232.3,380.7,232.2z"/>
  <path class="star" d="M261.7,103.2c0-0.3,0.1-0.6,0.2-0.9c0.1-0.2,0.1-0.4,0.2-0.6c0-0.1,0-0.1-0.1-0.2c-0.3-0.2-0.7-0.5-0.9-0.7 c-0.1-0.1-0.3-0.2-0.4-0.4c-0.1-0.2-0.1-0.3,0.1-0.4c0.2-0.1,0.4-0.1,0.5-0.1c0.4-0.1,0.8-0.1,1.2-0.1c0.1,0,0.1,0,0.1-0.1 c0.1-0.4,0.2-0.8,0.4-1.1c0.1-0.2,0.1-0.3,0.3-0.4c0.2-0.2,0.4-0.2,0.5,0c0.2,0.2,0.3,0.4,0.4,0.6c0.1,0.3,0.2,0.6,0.3,0.9 c0,0.1,0,0.1,0.1,0.1c0.5,0,0.9,0,1.4,0.1c0.1,0,0.3,0,0.4,0.1c0.1,0.1,0.1,0.1,0.1,0.2c-0.1,0.1-0.1,0.2-0.2,0.3 c-0.3,0.3-0.7,0.6-1.1,0.9c-0.1,0.1-0.1,0.1-0.1,0.2c0.1,0.4,0.3,0.8,0.3,1.2c0,0.2,0.1,0.3,0,0.5c0,0.1-0.1,0.2-0.2,0.2 c-0.2,0-0.4-0.1-0.6-0.2c-0.3-0.2-0.7-0.4-1-0.6c-0.1-0.1-0.1-0.1-0.2,0c-0.4,0.3-0.7,0.5-1.1,0.7c-0.1,0.1-0.3,0.1-0.4,0.2 c-0.1,0-0.2,0-0.2-0.2C261.7,103.3,261.7,103.3,261.7,103.2z"/>
  <path class="star" d="M251.7,13.2c0-0.3,0.1-0.6,0.2-0.9c0.1-0.2,0.1-0.4,0.2-0.6c0-0.1,0-0.1-0.1-0.2c-0.3-0.2-0.7-0.5-0.9-0.7 c-0.1-0.1-0.3-0.2-0.4-0.4c-0.1-0.2-0.1-0.3,0.1-0.4c0.2-0.1,0.4-0.1,0.5-0.1c0.4-0.1,0.8-0.1,1.2-0.1c0.1,0,0.1,0,0.1-0.1 c0.1-0.4,0.2-0.8,0.4-1.1c0.1-0.2,0.1-0.3,0.3-0.4c0.2-0.2,0.4-0.2,0.5,0c0.2,0.2,0.3,0.4,0.4,0.6c0.1,0.3,0.2,0.6,0.3,0.9 c0,0.1,0,0.1,0.1,0.1c0.5,0,0.9,0,1.4,0.1c0.1,0,0.3,0,0.4,0.1c0.1,0.1,0.1,0.1,0.1,0.2c-0.1,0.1-0.1,0.2-0.2,0.3 c-0.3,0.3-0.7,0.6-1.1,0.9c-0.1,0.1-0.1,0.1-0.1,0.2c0.1,0.4,0.3,0.8,0.3,1.2c0,0.2,0.1,0.3,0,0.5c0,0.1-0.1,0.2-0.2,0.2 c-0.2,0-0.4-0.1-0.6-0.2c-0.3-0.2-0.7-0.4-1-0.6c-0.1-0.1-0.1-0.1-0.2,0c-0.4,0.3-0.7,0.5-1.1,0.7c-0.1,0.1-0.3,0.1-0.4,0.2 c-0.1,0-0.2,0-0.2-0.2C251.7,13.3,251.7,13.3,251.7,13.2z"/>
  <path class="star" d="M113.7,192.2c0-0.3,0.1-0.6,0.2-0.9c0.1-0.2,0.1-0.4,0.2-0.6c0-0.1,0-0.1-0.1-0.2c-0.3-0.2-0.7-0.5-0.9-0.7 c-0.1-0.1-0.3-0.2-0.4-0.4c-0.1-0.2-0.1-0.3,0.1-0.4c0.2-0.1,0.4-0.1,0.5-0.1c0.4-0.1,0.8-0.1,1.2-0.1c0.1,0,0.1,0,0.1-0.1 c0.1-0.4,0.2-0.8,0.4-1.1c0.1-0.2,0.1-0.3,0.3-0.4c0.2-0.2,0.4-0.2,0.5,0c0.2,0.2,0.3,0.4,0.4,0.6c0.1,0.3,0.2,0.6,0.3,0.9 c0,0.1,0,0.1,0.1,0.1c0.5,0,0.9,0,1.4,0.1c0.1,0,0.3,0,0.4,0.1c0.1,0.1,0.1,0.1,0.1,0.2c-0.1,0.1-0.1,0.2-0.2,0.3 c-0.3,0.3-0.7,0.6-1.1,0.9c-0.1,0.1-0.1,0.1-0.1,0.2c0.1,0.4,0.3,0.8,0.3,1.2c0,0.2,0.1,0.3,0,0.5c0,0.1-0.1,0.2-0.2,0.2 c-0.2,0-0.4-0.1-0.6-0.2c-0.3-0.2-0.7-0.4-1-0.6c-0.1-0.1-0.1-0.1-0.2,0c-0.4,0.3-0.7,0.5-1.1,0.7c-0.1,0.1-0.3,0.1-0.4,0.2 c-0.1,0-0.2,0-0.2-0.2C113.7,192.3,113.7,192.3,113.7,192.2z"/>
  <path class="star" d="M63.7,152.2c0-0.3,0.1-0.6,0.2-0.9c0.1-0.2,0.1-0.4,0.2-0.6c0-0.1,0-0.1-0.1-0.2c-0.3-0.2-0.7-0.5-0.9-0.7 c-0.1-0.1-0.3-0.2-0.4-0.4c-0.1-0.2-0.1-0.3,0.1-0.4c0.2-0.1,0.4-0.1,0.5-0.1c0.4-0.1,0.8-0.1,1.2-0.1c0.1,0,0.1,0,0.1-0.1 c0.1-0.4,0.2-0.8,0.4-1.1c0.1-0.2,0.1-0.3,0.3-0.4c0.2-0.2,0.4-0.2,0.5,0c0.2,0.2,0.3,0.4,0.4,0.6c0.1,0.3,0.2,0.6,0.3,0.9 c0,0.1,0,0.1,0.1,0.1c0.5,0,0.9,0,1.4,0.1c0.1,0,0.3,0,0.4,0.1c0.1,0.1,0.1,0.1,0.1,0.2c-0.1,0.1-0.1,0.2-0.2,0.3 c-0.3,0.3-0.7,0.6-1.1,0.9c-0.1,0.1-0.1,0.1-0.1,0.2c0.1,0.4,0.3,0.8,0.3,1.2c0,0.2,0.1,0.3,0,0.5c0,0.1-0.1,0.2-0.2,0.2 c-0.2,0-0.4-0.1-0.6-0.2c-0.3-0.2-0.7-0.4-1-0.6c-0.1-0.1-0.1-0.1-0.2,0c-0.4,0.3-0.7,0.5-1.1,0.7c-0.1,0.1-0.3,0.1-0.4,0.2 c-0.1,0-0.2,0-0.2-0.2C63.7,152.3,63.7,152.3,63.7,152.2z"/>
  <path class="star" d="M113.7,112.2c0-0.3,0.1-0.6,0.2-0.9c0.1-0.2,0.1-0.4,0.2-0.6c0-0.1,0-0.1-0.1-0.2c-0.3-0.2-0.7-0.5-0.9-0.7 c-0.1-0.1-0.3-0.2-0.4-0.4c-0.1-0.2-0.1-0.3,0.1-0.4c0.2-0.1,0.4-0.1,0.5-0.1c0.4-0.1,0.8-0.1,1.2-0.1c0.1,0,0.1,0,0.1-0.1 c0.1-0.4,0.2-0.8,0.4-1.1c0.1-0.2,0.1-0.3,0.3-0.4c0.2-0.2,0.4-0.2,0.5,0c0.2,0.2,0.3,0.4,0.4,0.6c0.1,0.3,0.2,0.6,0.3,0.9 c0,0.1,0,0.1,0.1,0.1c0.5,0,0.9,0,1.4,0.1c0.1,0,0.3,0,0.4,0.1c0.1,0.1,0.1,0.1,0.1,0.2c-0.1,0.1-0.1,0.2-0.2,0.3 c-0.3,0.3-0.7,0.6-1.1,0.9c-0.1,0.1-0.1,0.1-0.1,0.2c0.1,0.4,0.3,0.8,0.3,1.2c0,0.2,0.1,0.3,0,0.5c0,0.1-0.1,0.2-0.2,0.2 c-0.2,0-0.4-0.1-0.6-0.2c-0.3-0.2-0.7-0.4-1-0.6c-0.1-0.1-0.1-0.1-0.2,0c-0.4,0.3-0.7,0.5-1.1,0.7c-0.1,0.1-0.3,0.1-0.4,0.2 c-0.1,0-0.2,0-0.2-0.2C113.7,112.3,113.7,112.3,113.7,112.2z"/>
  <path class="star" d="M123.7,152.2c0-0.3,0.1-0.6,0.2-0.9c0.1-0.2,0.1-0.4,0.2-0.6c0-0.1,0-0.1-0.1-0.2c-0.3-0.2-0.7-0.5-0.9-0.7 c-0.1-0.1-0.3-0.2-0.4-0.4c-0.1-0.2-0.1-0.3,0.1-0.4c0.2-0.1,0.4-0.1,0.5-0.1c0.4-0.1,0.8-0.1,1.2-0.1c0.1,0,0.1,0,0.1-0.1 c0.1-0.4,0.2-0.8,0.4-1.1c0.1-0.2,0.1-0.3,0.3-0.4c0.2-0.2,0.4-0.2,0.5,0c0.2,0.2,0.3,0.4,0.4,0.6c0.1,0.3,0.2,0.6,0.3,0.9 c0,0.1,0,0.1,0.1,0.1c0.5,0,0.9,0,1.4,0.1c0.1,0,0.3,0,0.4,0.1c0.1,0.1,0.1,0.1,0.1,0.2c-0.1,0.1-0.1,0.2-0.2,0.3 c-0.3,0.3-0.7,0.6-1.1,0.9c-0.1,0.1-0.1,0.1-0.1,0.2c0.1,0.4,0.3,0.8,0.3,1.2c0,0.2,0.1,0.3,0,0.5c0,0.1-0.1,0.2-0.2,0.2 c-0.2,0-0.4-0.1-0.6-0.2c-0.3-0.2-0.7-0.4-1-0.6c-0.1-0.1-0.1-0.1-0.2,0c-0.4,0.3-0.7,0.5-1.1,0.7c-0.1,0.1-0.3,0.1-0.4,0.2 c-0.1,0-0.2,0-0.2-0.2C123.7,152.3,123.7,152.3,123.7,152.2z"/>
  <path class="star" d="M123.7,62.2c0-0.3,0.1-0.6,0.2-0.9c0.1-0.2,0.1-0.4,0.2-0.6c0-0.1,0-0.1-0.1-0.2c-0.3-0.2-0.7-0.5-0.9-0.7 c-0.1-0.1-0.3-0.2-0.4-0.4c-0.1-0.2-0.1-0.3,0.1-0.4c0.2-0.1,0.4-0.1,0.5-0.1c0.4-0.1,0.8-0.1,1.2-0.1c0.1,0,0.1,0,0.1-0.1 c0.1-0.4,0.2-0.8,0.4-1.1c0.1-0.2,0.1-0.3,0.3-0.4c0.2-0.2,0.4-0.2,0.5,0c0.2,0.2,0.3,0.4,0.4,0.6c0.1,0.3,0.2,0.6,0.3,0.9 c0,0.1,0,0.1,0.1,0.1c0.5,0,0.9,0,1.4,0.1c0.1,0,0.3,0,0.4,0.1c0.1,0.1,0.1,0.1,0.1,0.2c-0.1,0.1-0.1,0.2-0.2,0.3 c-0.3,0.3-0.7,0.6-1.1,0.9c-0.1,0.1-0.1,0.1-0.1,0.2c0.1,0.4,0.3,0.8,0.3,1.2c0,0.2,0.1,0.3,0,0.5c0,0.1-0.1,0.2-0.2,0.2 c-0.2,0-0.4-0.1-0.6-0.2c-0.3-0.2-0.7-0.4-1-0.6c-0.1-0.1-0.1-0.1-0.2,0c-0.4,0.3-0.7,0.5-1.1,0.7c-0.1,0.1-0.3,0.1-0.4,0.2 c-0.1,0-0.2,0-0.2-0.2C123.7,62.3,123.7,62.3,123.7,62.2z"/>
  <path class="star" d="M183.7,62.2c0-0.3,0.1-0.6,0.2-0.9c0.1-0.2,0.1-0.4,0.2-0.6c0-0.1,0-0.1-0.1-0.2c-0.3-0.2-0.7-0.5-0.9-0.7 c-0.1-0.1-0.3-0.2-0.4-0.4c-0.1-0.2-0.1-0.3,0.1-0.4c0.2-0.1,0.4-0.1,0.5-0.1c0.4-0.1,0.8-0.1,1.2-0.1c0.1,0,0.1,0,0.1-0.1 c0.1-0.4,0.2-0.8,0.4-1.1c0.1-0.2,0.1-0.3,0.3-0.4c0.2-0.2,0.4-0.2,0.5,0c0.2,0.2,0.3,0.4,0.4,0.6c0.1,0.3,0.2,0.6,0.3,0.9 c0,0.1,0,0.1,0.1,0.1c0.5,0,0.9,0,1.4,0.1c0.1,0,0.3,0,0.4,0.1c0.1,0.1,0.1,0.1,0.1,0.2c-0.1,0.1-0.1,0.2-0.2,0.3 c-0.3,0.3-0.7,0.6-1.1,0.9c-0.1,0.1-0.1,0.1-0.1,0.2c0.1,0.4,0.3,0.8,0.3,1.2c0,0.2,0.1,0.3,0,0.5c0,0.1-0.1,0.2-0.2,0.2 c-0.2,0-0.4-0.1-0.6-0.2c-0.3-0.2-0.7-0.4-1-0.6c-0.1-0.1-0.1-0.1-0.2,0c-0.4,0.3-0.7,0.5-1.1,0.7c-0.1,0.1-0.3,0.1-0.4,0.2 c-0.1,0-0.2,0-0.2-0.2C183.7,62.3,183.7,62.3,183.7,62.2z"/>
  <path class="star" d="M173.7,122.2c0-0.3,0.1-0.6,0.2-0.9c0.1-0.2,0.1-0.4,0.2-0.6c0-0.1,0-0.1-0.1-0.2c-0.3-0.2-0.7-0.5-0.9-0.7 c-0.1-0.1-0.3-0.2-0.4-0.4c-0.1-0.2-0.1-0.3,0.1-0.4c0.2-0.1,0.4-0.1,0.5-0.1c0.4-0.1,0.8-0.1,1.2-0.1c0.1,0,0.1,0,0.1-0.1 c0.1-0.4,0.2-0.8,0.4-1.1c0.1-0.2,0.1-0.3,0.3-0.4c0.2-0.2,0.4-0.2,0.5,0c0.2,0.2,0.3,0.4,0.4,0.6c0.1,0.3,0.2,0.6,0.3,0.9 c0,0.1,0,0.1,0.1,0.1c0.5,0,0.9,0,1.4,0.1c0.1,0,0.3,0,0.4,0.1c0.1,0.1,0.1,0.1,0.1,0.2c-0.1,0.1-0.1,0.2-0.2,0.3 c-0.3,0.3-0.7,0.6-1.1,0.9c-0.1,0.1-0.1,0.1-0.1,0.2c0.1,0.4,0.3,0.8,0.3,1.2c0,0.2,0.1,0.3,0,0.5c0,0.1-0.1,0.2-0.2,0.2 c-0.2,0-0.4-0.1-0.6-0.2c-0.3-0.2-0.7-0.4-1-0.6c-0.1-0.1-0.1-0.1-0.2,0c-0.4,0.3-0.7,0.5-1.1,0.7c-0.1,0.1-0.3,0.1-0.4,0.2 c-0.1,0-0.2,0-0.2-0.2C173.7,122.3,173.7,122.3,173.7,122.2z"/>
  <path class="star" d="M83.7,232.2c0-0.3,0.1-0.6,0.2-0.9c0.1-0.2,0.1-0.4,0.2-0.6c0-0.1,0-0.1-0.1-0.2c-0.3-0.2-0.7-0.5-0.9-0.7 c-0.1-0.1-0.3-0.2-0.4-0.4c-0.1-0.2-0.1-0.3,0.1-0.4c0.2-0.1,0.4-0.1,0.5-0.1c0.4-0.1,0.8-0.1,1.2-0.1c0.1,0,0.1,0,0.1-0.1 c0.1-0.4,0.2-0.8,0.4-1.1c0.1-0.2,0.1-0.3,0.3-0.4c0.2-0.2,0.4-0.2,0.5,0c0.2,0.2,0.3,0.4,0.4,0.6c0.1,0.3,0.2,0.6,0.3,0.9 c0,0.1,0,0.1,0.1,0.1c0.5,0,0.9,0,1.4,0.1c0.1,0,0.3,0,0.4,0.1c0.1,0.1,0.1,0.1,0.1,0.2c-0.1,0.1-0.1,0.2-0.2,0.3 c-0.3,0.3-0.7,0.6-1.1,0.9c-0.1,0.1-0.1,0.1-0.1,0.2c0.1,0.4,0.3,0.8,0.3,1.2c0,0.2,0.1,0.3,0,0.5c0,0.1-0.1,0.2-0.2,0.2 c-0.2,0-0.4-0.1-0.6-0.2c-0.3-0.2-0.7-0.4-1-0.6c-0.1-0.1-0.1-0.1-0.2,0c-0.4,0.3-0.7,0.5-1.1,0.7c-0.1,0.1-0.3,0.1-0.4,0.2 c-0.1,0-0.2,0-0.2-0.2C83.7,232.3,83.7,232.3,83.7,232.2z"/>
  <path class="star" d="M73.7,102.2c0-0.3,0.1-0.6,0.2-0.9c0.1-0.2,0.1-0.4,0.2-0.6c0-0.1,0-0.1-0.1-0.2c-0.3-0.2-0.7-0.5-0.9-0.7 c-0.1-0.1-0.3-0.2-0.4-0.4c-0.1-0.2-0.1-0.3,0.1-0.4c0.2-0.1,0.4-0.1,0.5-0.1c0.4-0.1,0.8-0.1,1.2-0.1c0.1,0,0.1,0,0.1-0.1 c0.1-0.4,0.2-0.8,0.4-1.1c0.1-0.2,0.1-0.3,0.3-0.4c0.2-0.2,0.4-0.2,0.5,0c0.2,0.2,0.3,0.4,0.4,0.6c0.1,0.3,0.2,0.6,0.3,0.9 c0,0.1,0,0.1,0.1,0.1c0.5,0,0.9,0,1.4,0.1c0.1,0,0.3,0,0.4,0.1c0.1,0.1,0.1,0.1,0.1,0.2c-0.1,0.1-0.1,0.2-0.2,0.3 c-0.3,0.3-0.7,0.6-1.1,0.9c-0.1,0.1-0.1,0.1-0.1,0.2c0.1,0.4,0.3,0.8,0.3,1.2c0,0.2,0.1,0.3,0,0.5c0,0.1-0.1,0.2-0.2,0.2 c-0.2,0-0.4-0.1-0.6-0.2c-0.3-0.2-0.7-0.4-1-0.6c-0.1-0.1-0.1-0.1-0.2,0c-0.4,0.3-0.7,0.5-1.1,0.7c-0.1,0.1-0.3,0.1-0.4,0.2 c-0.1,0-0.2,0-0.2-0.2C73.7,102.3,73.7,102.3,73.7,102.2z"/>
  <path class="star" d="M233.7,62.2c0-0.3,0.1-0.6,0.2-0.9c0.1-0.2,0.1-0.4,0.2-0.6c0-0.1,0-0.1-0.1-0.2c-0.3-0.2-0.7-0.5-0.9-0.7 c-0.1-0.1-0.3-0.2-0.4-0.4c-0.1-0.2-0.1-0.3,0.1-0.4c0.2-0.1,0.4-0.1,0.5-0.1c0.4-0.1,0.8-0.1,1.2-0.1c0.1,0,0.1,0,0.1-0.1 c0.1-0.4,0.2-0.8,0.4-1.1c0.1-0.2,0.1-0.3,0.3-0.4c0.2-0.2,0.4-0.2,0.5,0c0.2,0.2,0.3,0.4,0.4,0.6c0.1,0.3,0.2,0.6,0.3,0.9 c0,0.1,0,0.1,0.1,0.1c0.5,0,0.9,0,1.4,0.1c0.1,0,0.3,0,0.4,0.1c0.1,0.1,0.1,0.1,0.1,0.2c-0.1,0.1-0.1,0.2-0.2,0.3 c-0.3,0.3-0.7,0.6-1.1,0.9c-0.1,0.1-0.1,0.1-0.1,0.2c0.1,0.4,0.3,0.8,0.3,1.2c0,0.2,0.1,0.3,0,0.5c0,0.1-0.1,0.2-0.2,0.2 c-0.2,0-0.4-0.1-0.6-0.2c-0.3-0.2-0.7-0.4-1-0.6c-0.1-0.1-0.1-0.1-0.2,0c-0.4,0.3-0.7,0.5-1.1,0.7c-0.1,0.1-0.3,0.1-0.4,0.2 c-0.1,0-0.2,0-0.2-0.2C233.7,62.3,233.7,62.3,233.7,62.2z"/>
  <path class="star" d="M223.7,112.2c0-0.3,0.1-0.6,0.2-0.9c0.1-0.2,0.1-0.4,0.2-0.6c0-0.1,0-0.1-0.1-0.2c-0.3-0.2-0.7-0.5-0.9-0.7 c-0.1-0.1-0.3-0.2-0.4-0.4c-0.1-0.2-0.1-0.3,0.1-0.4c0.2-0.1,0.4-0.1,0.5-0.1c0.4-0.1,0.8-0.1,1.2-0.1c0.1,0,0.1,0,0.1-0.1 c0.1-0.4,0.2-0.8,0.4-1.1c0.1-0.2,0.1-0.3,0.3-0.4c0.2-0.2,0.4-0.2,0.5,0c0.2,0.2,0.3,0.4,0.4,0.6c0.1,0.3,0.2,0.6,0.3,0.9 c0,0.1,0,0.1,0.1,0.1c0.5,0,0.9,0,1.4,0.1c0.1,0,0.3,0,0.4,0.1c0.1,0.1,0.1,0.1,0.1,0.2c-0.1,0.1-0.1,0.2-0.2,0.3 c-0.3,0.3-0.7,0.6-1.1,0.9c-0.1,0.1-0.1,0.1-0.1,0.2c0.1,0.4,0.3,0.8,0.3,1.2c0,0.2,0.1,0.3,0,0.5c0,0.1-0.1,0.2-0.2,0.2 c-0.2,0-0.4-0.1-0.6-0.2c-0.3-0.2-0.7-0.4-1-0.6c-0.1-0.1-0.1-0.1-0.2,0c-0.4,0.3-0.7,0.5-1.1,0.7c-0.1,0.1-0.3,0.1-0.4,0.2 c-0.1,0-0.2,0-0.2-0.2C223.7,112.3,223.7,112.3,223.7,112.2z"/>
  <path class="star" d="M23.7,182.2c0-0.3,0.1-0.6,0.2-0.9c0.1-0.2,0.1-0.4,0.2-0.6c0-0.1,0-0.1-0.1-0.2c-0.3-0.2-0.7-0.5-0.9-0.7 c-0.1-0.1-0.3-0.2-0.4-0.4c-0.1-0.2-0.1-0.3,0.1-0.4c0.2-0.1,0.4-0.1,0.5-0.1c0.4-0.1,0.8-0.1,1.2-0.1c0.1,0,0.1,0,0.1-0.1 c0.1-0.4,0.2-0.8,0.4-1.1c0.1-0.2,0.1-0.3,0.3-0.4c0.2-0.2,0.4-0.2,0.5,0c0.2,0.2,0.3,0.4,0.4,0.6c0.1,0.3,0.2,0.6,0.3,0.9 c0,0.1,0,0.1,0.1,0.1c0.5,0,0.9,0,1.4,0.1c0.1,0,0.3,0,0.4,0.1c0.1,0.1,0.1,0.1,0.1,0.2c-0.1,0.1-0.1,0.2-0.2,0.3 c-0.3,0.3-0.7,0.6-1.1,0.9c-0.1,0.1-0.1,0.1-0.1,0.2c0.1,0.4,0.3,0.8,0.3,1.2c0,0.2,0.1,0.3,0,0.5c0,0.1-0.1,0.2-0.2,0.2 c-0.2,0-0.4-0.1-0.6-0.2c-0.3-0.2-0.7-0.4-1-0.6c-0.1-0.1-0.1-0.1-0.2,0c-0.4,0.3-0.7,0.5-1.1,0.7c-0.1,0.1-0.3,0.1-0.4,0.2 c-0.1,0-0.2,0-0.2-0.2C23.7,182.3,23.7,182.3,23.7,182.2z"/>
  <path class="star" d="M73.7,192.2c0-0.3,0.1-0.6,0.2-0.9c0.1-0.2,0.1-0.4,0.2-0.6c0-0.1,0-0.1-0.1-0.2c-0.3-0.2-0.7-0.5-0.9-0.7 c-0.1-0.1-0.3-0.2-0.4-0.4c-0.1-0.2-0.1-0.3,0.1-0.4c0.2-0.1,0.4-0.1,0.5-0.1c0.4-0.1,0.8-0.1,1.2-0.1c0.1,0,0.1,0,0.1-0.1 c0.1-0.4,0.2-0.8,0.4-1.1c0.1-0.2,0.1-0.3,0.3-0.4c0.2-0.2,0.4-0.2,0.5,0c0.2,0.2,0.3,0.4,0.4,0.6c0.1,0.3,0.2,0.6,0.3,0.9 c0,0.1,0,0.1,0.1,0.1c0.5,0,0.9,0,1.4,0.1c0.1,0,0.3,0,0.4,0.1c0.1,0.1,0.1,0.1,0.1,0.2c-0.1,0.1-0.1,0.2-0.2,0.3 c-0.3,0.3-0.7,0.6-1.1,0.9c-0.1,0.1-0.1,0.1-0.1,0.2c0.1,0.4,0.3,0.8,0.3,1.2c0,0.2,0.1,0.3,0,0.5c0,0.1-0.1,0.2-0.2,0.2 c-0.2,0-0.4-0.1-0.6-0.2c-0.3-0.2-0.7-0.4-1-0.6c-0.1-0.1-0.1-0.1-0.2,0c-0.4,0.3-0.7,0.5-1.1,0.7c-0.1,0.1-0.3,0.1-0.4,0.2 c-0.1,0-0.2,0-0.2-0.2C73.7,192.3,73.7,192.3,73.7,192.2z"/>
  <path class="star" d="M163.7,92.2c0-0.3,0.1-0.6,0.2-0.9c0.1-0.2,0.1-0.4,0.2-0.6c0-0.1,0-0.1-0.1-0.2c-0.3-0.2-0.7-0.5-0.9-0.7 c-0.1-0.1-0.3-0.2-0.4-0.4c-0.1-0.2-0.1-0.3,0.1-0.4c0.2-0.1,0.4-0.1,0.5-0.1c0.4-0.1,0.8-0.1,1.2-0.1c0.1,0,0.1,0,0.1-0.1 c0.1-0.4,0.2-0.8,0.4-1.1c0.1-0.2,0.1-0.3,0.3-0.4c0.2-0.2,0.4-0.2,0.5,0c0.2,0.2,0.3,0.4,0.4,0.6c0.1,0.3,0.2,0.6,0.3,0.9 c0,0.1,0,0.1,0.1,0.1c0.5,0,0.9,0,1.4,0.1c0.1,0,0.3,0,0.4,0.1c0.1,0.1,0.1,0.1,0.1,0.2c-0.1,0.1-0.1,0.2-0.2,0.3 c-0.3,0.3-0.7,0.6-1.1,0.9c-0.1,0.1-0.1,0.1-0.1,0.2c0.1,0.4,0.3,0.8,0.3,1.2c0,0.2,0.1,0.3,0,0.5c0,0.1-0.1,0.2-0.2,0.2 c-0.2,0-0.4-0.1-0.6-0.2c-0.3-0.2-0.7-0.4-1-0.6c-0.1-0.1-0.1-0.1-0.2,0c-0.4,0.3-0.7,0.5-1.1,0.7c-0.1,0.1-0.3,0.1-0.4,0.2 c-0.1,0-0.2,0-0.2-0.2C163.7,92.3,163.7,92.3,163.7,92.2z"/>
  <path class="star" d="M183.7,22.2c0-0.3,0.1-0.6,0.2-0.9c0.1-0.2,0.1-0.4,0.2-0.6c0-0.1,0-0.1-0.1-0.2c-0.3-0.2-0.7-0.5-0.9-0.7 c-0.1-0.1-0.3-0.2-0.4-0.4c-0.1-0.2-0.1-0.3,0.1-0.4c0.2-0.1,0.4-0.1,0.5-0.1c0.4-0.1,0.8-0.1,1.2-0.1c0.1,0,0.1,0,0.1-0.1 c0.1-0.4,0.2-0.8,0.4-1.1c0.1-0.2,0.1-0.3,0.3-0.4c0.2-0.2,0.4-0.2,0.5,0c0.2,0.2,0.3,0.4,0.4,0.6c0.1,0.3,0.2,0.6,0.3,0.9 c0,0.1,0,0.1,0.1,0.1c0.5,0,0.9,0,1.4,0.1c0.1,0,0.3,0,0.4,0.1c0.1,0.1,0.1,0.1,0.1,0.2c-0.1,0.1-0.1,0.2-0.2,0.3 c-0.3,0.3-0.7,0.6-1.1,0.9c-0.1,0.1-0.1,0.1-0.1,0.2c0.1,0.4,0.3,0.8,0.3,1.2c0,0.2,0.1,0.3,0,0.5c0,0.1-0.1,0.2-0.2,0.2 c-0.2,0-0.4-0.1-0.6-0.2c-0.3-0.2-0.7-0.4-1-0.6c-0.1-0.1-0.1-0.1-0.2,0c-0.4,0.3-0.7,0.5-1.1,0.7c-0.1,0.1-0.3,0.1-0.4,0.2 c-0.1,0-0.2,0-0.2-0.2C183.7,22.3,183.7,22.3,183.7,22.2z"/>
  <path class="star" d="M353.7,152.2c0-0.3,0.1-0.6,0.2-0.9c0.1-0.2,0.1-0.4,0.2-0.6c0-0.1,0-0.1-0.1-0.2c-0.3-0.2-0.7-0.5-0.9-0.7 c-0.1-0.1-0.3-0.2-0.4-0.4c-0.1-0.2-0.1-0.3,0.1-0.4c0.2-0.1,0.4-0.1,0.5-0.1c0.4-0.1,0.8-0.1,1.2-0.1c0.1,0,0.1,0,0.1-0.1 c0.1-0.4,0.2-0.8,0.4-1.1c0.1-0.2,0.1-0.3,0.3-0.4c0.2-0.2,0.4-0.2,0.5,0c0.2,0.2,0.3,0.4,0.4,0.6c0.1,0.3,0.2,0.6,0.3,0.9 c0,0.1,0,0.1,0.1,0.1c0.5,0,0.9,0,1.4,0.1c0.1,0,0.3,0,0.4,0.1c0.1,0.1,0.1,0.1,0.1,0.2c-0.1,0.1-0.1,0.2-0.2,0.3 c-0.3,0.3-0.7,0.6-1.1,0.9c-0.1,0.1-0.1,0.1-0.1,0.2c0.1,0.4,0.3,0.8,0.3,1.2c0,0.2,0.1,0.3,0,0.5c0,0.1-0.1,0.2-0.2,0.2 c-0.2,0-0.4-0.1-0.6-0.2c-0.3-0.2-0.7-0.4-1-0.6c-0.1-0.1-0.1-0.1-0.2,0c-0.4,0.3-0.7,0.5-1.1,0.7c-0.1,0.1-0.3,0.1-0.4,0.2 c-0.1,0-0.2,0-0.2-0.2C353.7,152.3,353.7,152.3,353.7,152.2z"/>
  <path class="star" d="M313.7,112.2c0-0.3,0.1-0.6,0.2-0.9c0.1-0.2,0.1-0.4,0.2-0.6c0-0.1,0-0.1-0.1-0.2c-0.3-0.2-0.7-0.5-0.9-0.7 c-0.1-0.1-0.3-0.2-0.4-0.4c-0.1-0.2-0.1-0.3,0.1-0.4c0.2-0.1,0.4-0.1,0.5-0.1c0.4-0.1,0.8-0.1,1.2-0.1c0.1,0,0.1,0,0.1-0.1 c0.1-0.4,0.2-0.8,0.4-1.1c0.1-0.2,0.1-0.3,0.3-0.4c0.2-0.2,0.4-0.2,0.5,0c0.2,0.2,0.3,0.4,0.4,0.6c0.1,0.3,0.2,0.6,0.3,0.9 c0,0.1,0,0.1,0.1,0.1c0.5,0,0.9,0,1.4,0.1c0.1,0,0.3,0,0.4,0.1c0.1,0.1,0.1,0.1,0.1,0.2c-0.1,0.1-0.1,0.2-0.2,0.3 c-0.3,0.3-0.7,0.6-1.1,0.9c-0.1,0.1-0.1,0.1-0.1,0.2c0.1,0.4,0.3,0.8,0.3,1.2c0,0.2,0.1,0.3,0,0.5c0,0.1-0.1,0.2-0.2,0.2 c-0.2,0-0.4-0.1-0.6-0.2c-0.3-0.2-0.7-0.4-1-0.6c-0.1-0.1-0.1-0.1-0.2,0c-0.4,0.3-0.7,0.5-1.1,0.7c-0.1,0.1-0.3,0.1-0.4,0.2 c-0.1,0-0.2,0-0.2-0.2C313.7,112.3,313.7,112.3,313.7,112.2z"/>
  <path class="star" d="M413.7,112.2c0-0.3,0.1-0.6,0.2-0.9c0.1-0.2,0.1-0.4,0.2-0.6c0-0.1,0-0.1-0.1-0.2c-0.3-0.2-0.7-0.5-0.9-0.7 c-0.1-0.1-0.3-0.2-0.4-0.4c-0.1-0.2-0.1-0.3,0.1-0.4c0.2-0.1,0.4-0.1,0.5-0.1c0.4-0.1,0.8-0.1,1.2-0.1c0.1,0,0.1,0,0.1-0.1 c0.1-0.4,0.2-0.8,0.4-1.1c0.1-0.2,0.1-0.3,0.3-0.4c0.2-0.2,0.4-0.2,0.5,0c0.2,0.2,0.3,0.4,0.4,0.6c0.1,0.3,0.2,0.6,0.3,0.9 c0,0.1,0,0.1,0.1,0.1c0.5,0,0.9,0,1.4,0.1c0.1,0,0.3,0,0.4,0.1c0.1,0.1,0.1,0.1,0.1,0.2c-0.1,0.1-0.1,0.2-0.2,0.3 c-0.3,0.3-0.7,0.6-1.1,0.9c-0.1,0.1-0.1,0.1-0.1,0.2c0.1,0.4,0.3,0.8,0.3,1.2c0,0.2,0.1,0.3,0,0.5c0,0.1-0.1,0.2-0.2,0.2 c-0.2,0-0.4-0.1-0.6-0.2c-0.3-0.2-0.7-0.4-1-0.6c-0.1-0.1-0.1-0.1-0.2,0c-0.4,0.3-0.7,0.5-1.1,0.7c-0.1,0.1-0.3,0.1-0.4,0.2 c-0.1,0-0.2,0-0.2-0.2C413.7,112.3,413.7,112.3,413.7,112.2z"/>
  <path class="star" d="M433.7,172.2c0-0.3,0.1-0.6,0.2-0.9c0.1-0.2,0.1-0.4,0.2-0.6c0-0.1,0-0.1-0.1-0.2c-0.3-0.2-0.7-0.5-0.9-0.7 c-0.1-0.1-0.3-0.2-0.4-0.4c-0.1-0.2-0.1-0.3,0.1-0.4c0.2-0.1,0.4-0.1,0.5-0.1c0.4-0.1,0.8-0.1,1.2-0.1c0.1,0,0.1,0,0.1-0.1 c0.1-0.4,0.2-0.8,0.4-1.1c0.1-0.2,0.1-0.3,0.3-0.4c0.2-0.2,0.4-0.2,0.5,0c0.2,0.2,0.3,0.4,0.4,0.6c0.1,0.3,0.2,0.6,0.3,0.9 c0,0.1,0,0.1,0.1,0.1c0.5,0,0.9,0,1.4,0.1c0.1,0,0.3,0,0.4,0.1c0.1,0.1,0.1,0.1,0.1,0.2c-0.1,0.1-0.1,0.2-0.2,0.3 c-0.3,0.3-0.7,0.6-1.1,0.9c-0.1,0.1-0.1,0.1-0.1,0.2c0.1,0.4,0.3,0.8,0.3,1.2c0,0.2,0.1,0.3,0,0.5c0,0.1-0.1,0.2-0.2,0.2 c-0.2,0-0.4-0.1-0.6-0.2c-0.3-0.2-0.7-0.4-1-0.6c-0.1-0.1-0.1-0.1-0.2,0c-0.4,0.3-0.7,0.5-1.1,0.7c-0.1,0.1-0.3,0.1-0.4,0.2 c-0.1,0-0.2,0-0.2-0.2C433.7,172.3,433.7,172.3,433.7,172.2z"/>
  <path class="star" d="M381.7,193.2c0-0.3,0.1-0.6,0.2-0.9c0.1-0.2,0.1-0.4,0.2-0.6c0-0.1,0-0.1-0.1-0.2c-0.3-0.2-0.7-0.5-0.9-0.7 c-0.1-0.1-0.3-0.2-0.4-0.4c-0.1-0.2-0.1-0.3,0.1-0.4c0.2-0.1,0.4-0.1,0.5-0.1c0.4-0.1,0.8-0.1,1.2-0.1c0.1,0,0.1,0,0.1-0.1 c0.1-0.4,0.2-0.8,0.4-1.1c0.1-0.2,0.1-0.3,0.3-0.4c0.2-0.2,0.4-0.2,0.5,0c0.2,0.2,0.3,0.4,0.4,0.6c0.1,0.3,0.2,0.6,0.3,0.9 c0,0.1,0,0.1,0.1,0.1c0.5,0,0.9,0,1.4,0.1c0.1,0,0.3,0,0.4,0.1c0.1,0.1,0.1,0.1,0.1,0.2c-0.1,0.1-0.1,0.2-0.2,0.3 c-0.3,0.3-0.7,0.6-1.1,0.9c-0.1,0.1-0.1,0.1-0.1,0.2c0.1,0.4,0.3,0.8,0.3,1.2c0,0.2,0.1,0.3,0,0.5c0,0.1-0.1,0.2-0.2,0.2 c-0.2,0-0.4-0.1-0.6-0.2c-0.3-0.2-0.7-0.4-1-0.6c-0.1-0.1-0.1-0.1-0.2,0c-0.4,0.3-0.7,0.5-1.1,0.7c-0.1,0.1-0.3,0.1-0.4,0.2 c-0.1,0-0.2,0-0.2-0.2C381.7,193.3,381.7,193.3,381.7,193.2z"/>
  <path class="star" d="M291.7,33.2c0-0.3,0.1-0.6,0.2-0.9c0.1-0.2,0.1-0.4,0.2-0.6c0-0.1,0-0.1-0.1-0.2c-0.3-0.2-0.7-0.5-0.9-0.7 c-0.1-0.1-0.3-0.2-0.4-0.4c-0.1-0.2-0.1-0.3,0.1-0.4c0.2-0.1,0.4-0.1,0.5-0.1c0.4-0.1,0.8-0.1,1.2-0.1c0.1,0,0.1,0,0.1-0.1 c0.1-0.4,0.2-0.8,0.4-1.1c0.1-0.2,0.1-0.3,0.3-0.4c0.2-0.2,0.4-0.2,0.5,0c0.2,0.2,0.3,0.4,0.4,0.6c0.1,0.3,0.2,0.6,0.3,0.9 c0,0.1,0,0.1,0.1,0.1c0.5,0,0.9,0,1.4,0.1c0.1,0,0.3,0,0.4,0.1c0.1,0.1,0.1,0.1,0.1,0.2c-0.1,0.1-0.1,0.2-0.2,0.3 c-0.3,0.3-0.7,0.6-1.1,0.9c-0.1,0.1-0.1,0.1-0.1,0.2c0.1,0.4,0.3,0.8,0.3,1.2c0,0.2,0.1,0.3,0,0.5c0,0.1-0.1,0.2-0.2,0.2 c-0.2,0-0.4-0.1-0.6-0.2c-0.3-0.2-0.7-0.4-1-0.6c-0.1-0.1-0.1-0.1-0.2,0c-0.4,0.3-0.7,0.5-1.1,0.7c-0.1,0.1-0.3,0.1-0.4,0.2 c-0.1,0-0.2,0-0.2-0.2C291.7,33.3,291.7,33.3,291.7,33.2z"/>
  <path class="star" d="M311.7,73.2c0-0.3,0.1-0.6,0.2-0.9c0.1-0.2,0.1-0.4,0.2-0.6c0-0.1,0-0.1-0.1-0.2c-0.3-0.2-0.7-0.5-0.9-0.7 c-0.1-0.1-0.3-0.2-0.4-0.4c-0.1-0.2-0.1-0.3,0.1-0.4c0.2-0.1,0.4-0.1,0.5-0.1c0.4-0.1,0.8-0.1,1.2-0.1c0.1,0,0.1,0,0.1-0.1 c0.1-0.4,0.2-0.8,0.4-1.1c0.1-0.2,0.1-0.3,0.3-0.4c0.2-0.2,0.4-0.2,0.5,0c0.2,0.2,0.3,0.4,0.4,0.6c0.1,0.3,0.2,0.6,0.3,0.9 c0,0.1,0,0.1,0.1,0.1c0.5,0,0.9,0,1.4,0.1c0.1,0,0.3,0,0.4,0.1c0.1,0.1,0.1,0.1,0.1,0.2c-0.1,0.1-0.1,0.2-0.2,0.3 c-0.3,0.3-0.7,0.6-1.1,0.9c-0.1,0.1-0.1,0.1-0.1,0.2c0.1,0.4,0.3,0.8,0.3,1.2c0,0.2,0.1,0.3,0,0.5c0,0.1-0.1,0.2-0.2,0.2 c-0.2,0-0.4-0.1-0.6-0.2c-0.3-0.2-0.7-0.4-1-0.6c-0.1-0.1-0.1-0.1-0.2,0c-0.4,0.3-0.7,0.5-1.1,0.7c-0.1,0.1-0.3,0.1-0.4,0.2 c-0.1,0-0.2,0-0.2-0.2C311.7,73.3,311.7,73.3,311.7,73.2z"/>
  <path class="star" d="M371.7,53.2c0-0.3,0.1-0.6,0.2-0.9c0.1-0.2,0.1-0.4,0.2-0.6c0-0.1,0-0.1-0.1-0.2c-0.3-0.2-0.7-0.5-0.9-0.7 c-0.1-0.1-0.3-0.2-0.4-0.4c-0.1-0.2-0.1-0.3,0.1-0.4c0.2-0.1,0.4-0.1,0.5-0.1c0.4-0.1,0.8-0.1,1.2-0.1c0.1,0,0.1,0,0.1-0.1 c0.1-0.4,0.2-0.8,0.4-1.1c0.1-0.2,0.1-0.3,0.3-0.4c0.2-0.2,0.4-0.2,0.5,0c0.2,0.2,0.3,0.4,0.4,0.6c0.1,0.3,0.2,0.6,0.3,0.9 c0,0.1,0,0.1,0.1,0.1c0.5,0,0.9,0,1.4,0.1c0.1,0,0.3,0,0.4,0.1c0.1,0.1,0.1,0.1,0.1,0.2c-0.1,0.1-0.1,0.2-0.2,0.3 c-0.3,0.3-0.7,0.6-1.1,0.9c-0.1,0.1-0.1,0.1-0.1,0.2c0.1,0.4,0.3,0.8,0.3,1.2c0,0.2,0.1,0.3,0,0.5c0,0.1-0.1,0.2-0.2,0.2 c-0.2,0-0.4-0.1-0.6-0.2c-0.3-0.2-0.7-0.4-1-0.6c-0.1-0.1-0.1-0.1-0.2,0c-0.4,0.3-0.7,0.5-1.1,0.7c-0.1,0.1-0.3,0.1-0.4,0.2 c-0.1,0-0.2,0-0.2-0.2C371.7,53.3,371.7,53.3,371.7,53.2z"/>
  <path class="star" d="M441.7,233.2c0-0.3,0.1-0.6,0.2-0.9c0.1-0.2,0.1-0.4,0.2-0.6c0-0.1,0-0.1-0.1-0.2c-0.3-0.2-0.7-0.5-0.9-0.7 c-0.1-0.1-0.3-0.2-0.4-0.4c-0.1-0.2-0.1-0.3,0.1-0.4c0.2-0.1,0.4-0.1,0.5-0.1c0.4-0.1,0.8-0.1,1.2-0.1c0.1,0,0.1,0,0.1-0.1 c0.1-0.4,0.2-0.8,0.4-1.1c0.1-0.2,0.1-0.3,0.3-0.4c0.2-0.2,0.4-0.2,0.5,0c0.2,0.2,0.3,0.4,0.4,0.6c0.1,0.3,0.2,0.6,0.3,0.9 c0,0.1,0,0.1,0.1,0.1c0.5,0,0.9,0,1.4,0.1c0.1,0,0.3,0,0.4,0.1c0.1,0.1,0.1,0.1,0.1,0.2c-0.1,0.1-0.1,0.2-0.2,0.3 c-0.3,0.3-0.7,0.6-1.1,0.9c-0.1,0.1-0.1,0.1-0.1,0.2c0.1,0.4,0.3,0.8,0.3,1.2c0,0.2,0.1,0.3,0,0.5c0,0.1-0.1,0.2-0.2,0.2 c-0.2,0-0.4-0.1-0.6-0.2c-0.3-0.2-0.7-0.4-1-0.6c-0.1-0.1-0.1-0.1-0.2,0c-0.4,0.3-0.7,0.5-1.1,0.7c-0.1,0.1-0.3,0.1-0.4,0.2 c-0.1,0-0.2,0-0.2-0.2C441.7,233.3,441.7,233.3,441.7,233.2z"/>
  <path class="star" d="M471.7,193.2c0-0.3,0.1-0.6,0.2-0.9c0.1-0.2,0.1-0.4,0.2-0.6c0-0.1,0-0.1-0.1-0.2c-0.3-0.2-0.7-0.5-0.9-0.7 c-0.1-0.1-0.3-0.2-0.4-0.4c-0.1-0.2-0.1-0.3,0.1-0.4c0.2-0.1,0.4-0.1,0.5-0.1c0.4-0.1,0.8-0.1,1.2-0.1c0.1,0,0.1,0,0.1-0.1 c0.1-0.4,0.2-0.8,0.4-1.1c0.1-0.2,0.1-0.3,0.3-0.4c0.2-0.2,0.4-0.2,0.5,0c0.2,0.2,0.3,0.4,0.4,0.6c0.1,0.3,0.2,0.6,0.3,0.9 c0,0.1,0,0.1,0.1,0.1c0.5,0,0.9,0,1.4,0.1c0.1,0,0.3,0,0.4,0.1c0.1,0.1,0.1,0.1,0.1,0.2c-0.1,0.1-0.1,0.2-0.2,0.3 c-0.3,0.3-0.7,0.6-1.1,0.9c-0.1,0.1-0.1,0.1-0.1,0.2c0.1,0.4,0.3,0.8,0.3,1.2c0,0.2,0.1,0.3,0,0.5c0,0.1-0.1,0.2-0.2,0.2 c-0.2,0-0.4-0.1-0.6-0.2c-0.3-0.2-0.7-0.4-1-0.6c-0.1-0.1-0.1-0.1-0.2,0c-0.4,0.3-0.7,0.5-1.1,0.7c-0.1,0.1-0.3,0.1-0.4,0.2 c-0.1,0-0.2,0-0.2-0.2C471.7,193.3,471.7,193.3,471.7,193.2z"/>
  <path class="star" d="M361.7,93.2c0-0.3,0.1-0.6,0.2-0.9c0.1-0.2,0.1-0.4,0.2-0.6c0-0.1,0-0.1-0.1-0.2c-0.3-0.2-0.7-0.5-0.9-0.7 c-0.1-0.1-0.3-0.2-0.4-0.4c-0.1-0.2-0.1-0.3,0.1-0.4c0.2-0.1,0.4-0.1,0.5-0.1c0.4-0.1,0.8-0.1,1.2-0.1c0.1,0,0.1,0,0.1-0.1 c0.1-0.4,0.2-0.8,0.4-1.1c0.1-0.2,0.1-0.3,0.3-0.4c0.2-0.2,0.4-0.2,0.5,0c0.2,0.2,0.3,0.4,0.4,0.6c0.1,0.3,0.2,0.6,0.3,0.9 c0,0.1,0,0.1,0.1,0.1c0.5,0,0.9,0,1.4,0.1c0.1,0,0.3,0,0.4,0.1c0.1,0.1,0.1,0.1,0.1,0.2c-0.1,0.1-0.1,0.2-0.2,0.3 c-0.3,0.3-0.7,0.6-1.1,0.9c-0.1,0.1-0.1,0.1-0.1,0.2c0.1,0.4,0.3,0.8,0.3,1.2c0,0.2,0.1,0.3,0,0.5c0,0.1-0.1,0.2-0.2,0.2 c-0.2,0-0.4-0.1-0.6-0.2c-0.3-0.2-0.7-0.4-1-0.6c-0.1-0.1-0.1-0.1-0.2,0c-0.4,0.3-0.7,0.5-1.1,0.7c-0.1,0.1-0.3,0.1-0.4,0.2 c-0.1,0-0.2,0-0.2-0.2C361.7,93.3,361.7,93.3,361.7,93.2z"/>
  <path class="star" d="M451.7,133.2c0-0.3,0.1-0.6,0.2-0.9c0.1-0.2,0.1-0.4,0.2-0.6c0-0.1,0-0.1-0.1-0.2c-0.3-0.2-0.7-0.5-0.9-0.7 c-0.1-0.1-0.3-0.2-0.4-0.4c-0.1-0.2-0.1-0.3,0.1-0.4c0.2-0.1,0.4-0.1,0.5-0.1c0.4-0.1,0.8-0.1,1.2-0.1c0.1,0,0.1,0,0.1-0.1 c0.1-0.4,0.2-0.8,0.4-1.1c0.1-0.2,0.1-0.3,0.3-0.4c0.2-0.2,0.4-0.2,0.5,0c0.2,0.2,0.3,0.4,0.4,0.6c0.1,0.3,0.2,0.6,0.3,0.9 c0,0.1,0,0.1,0.1,0.1c0.5,0,0.9,0,1.4,0.1c0.1,0,0.3,0,0.4,0.1c0.1,0.1,0.1,0.1,0.1,0.2c-0.1,0.1-0.1,0.2-0.2,0.3 c-0.3,0.3-0.7,0.6-1.1,0.9c-0.1,0.1-0.1,0.1-0.1,0.2c0.1,0.4,0.3,0.8,0.3,1.2c0,0.2,0.1,0.3,0,0.5c0,0.1-0.1,0.2-0.2,0.2 c-0.2,0-0.4-0.1-0.6-0.2c-0.3-0.2-0.7-0.4-1-0.6c-0.1-0.1-0.1-0.1-0.2,0c-0.4,0.3-0.7,0.5-1.1,0.7c-0.1,0.1-0.3,0.1-0.4,0.2 c-0.1,0-0.2,0-0.2-0.2C451.7,133.3,451.7,133.3,451.7,133.2z"/>
  <path class="star" d="M411.7,213.2c0-0.3,0.1-0.6,0.2-0.9c0.1-0.2,0.1-0.4,0.2-0.6c0-0.1,0-0.1-0.1-0.2c-0.3-0.2-0.7-0.5-0.9-0.7 c-0.1-0.1-0.3-0.2-0.4-0.4c-0.1-0.2-0.1-0.3,0.1-0.4c0.2-0.1,0.4-0.1,0.5-0.1c0.4-0.1,0.8-0.1,1.2-0.1c0.1,0,0.1,0,0.1-0.1 c0.1-0.4,0.2-0.8,0.4-1.1c0.1-0.2,0.1-0.3,0.3-0.4c0.2-0.2,0.4-0.2,0.5,0c0.2,0.2,0.3,0.4,0.4,0.6c0.1,0.3,0.2,0.6,0.3,0.9 c0,0.1,0,0.1,0.1,0.1c0.5,0,0.9,0,1.4,0.1c0.1,0,0.3,0,0.4,0.1c0.1,0.1,0.1,0.1,0.1,0.2c-0.1,0.1-0.1,0.2-0.2,0.3 c-0.3,0.3-0.7,0.6-1.1,0.9c-0.1,0.1-0.1,0.1-0.1,0.2c0.1,0.4,0.3,0.8,0.3,1.2c0,0.2,0.1,0.3,0,0.5c0,0.1-0.1,0.2-0.2,0.2 c-0.2,0-0.4-0.1-0.6-0.2c-0.3-0.2-0.7-0.4-1-0.6c-0.1-0.1-0.1-0.1-0.2,0c-0.4,0.3-0.7,0.5-1.1,0.7c-0.1,0.1-0.3,0.1-0.4,0.2 c-0.1,0-0.2,0-0.2-0.2C411.7,213.3,411.7,213.3,411.7,213.2z"/>
  <path class="star" d="M151.7,33.2c0-0.3,0.1-0.6,0.2-0.9c0.1-0.2,0.1-0.4,0.2-0.6c0-0.1,0-0.1-0.1-0.2c-0.3-0.2-0.7-0.5-0.9-0.7 c-0.1-0.1-0.3-0.2-0.4-0.4c-0.1-0.2-0.1-0.3,0.1-0.4c0.2-0.1,0.4-0.1,0.5-0.1c0.4-0.1,0.8-0.1,1.2-0.1c0.1,0,0.1,0,0.1-0.1 c0.1-0.4,0.2-0.8,0.4-1.1c0.1-0.2,0.1-0.3,0.3-0.4c0.2-0.2,0.4-0.2,0.5,0c0.2,0.2,0.3,0.4,0.4,0.6c0.1,0.3,0.2,0.6,0.3,0.9 c0,0.1,0,0.1,0.1,0.1c0.5,0,0.9,0,1.4,0.1c0.1,0,0.3,0,0.4,0.1c0.1,0.1,0.1,0.1,0.1,0.2c-0.1,0.1-0.1,0.2-0.2,0.3 c-0.3,0.3-0.7,0.6-1.1,0.9c-0.1,0.1-0.1,0.1-0.1,0.2c0.1,0.4,0.3,0.8,0.3,1.2c0,0.2,0.1,0.3,0,0.5c0,0.1-0.1,0.2-0.2,0.2 c-0.2,0-0.4-0.1-0.6-0.2c-0.3-0.2-0.7-0.4-1-0.6c-0.1-0.1-0.1-0.1-0.2,0c-0.4,0.3-0.7,0.5-1.1,0.7c-0.1,0.1-0.3,0.1-0.4,0.2 c-0.1,0-0.2,0-0.2-0.2C151.7,33.3,151.7,33.3,151.7,33.2z"/>
  <path class="star" d="M401.7,143.2c0-0.3,0.1-0.6,0.2-0.9c0.1-0.2,0.1-0.4,0.2-0.6c0-0.1,0-0.1-0.1-0.2c-0.3-0.2-0.7-0.5-0.9-0.7 c-0.1-0.1-0.3-0.2-0.4-0.4c-0.1-0.2-0.1-0.3,0.1-0.4c0.2-0.1,0.4-0.1,0.5-0.1c0.4-0.1,0.8-0.1,1.2-0.1c0.1,0,0.1,0,0.1-0.1 c0.1-0.4,0.2-0.8,0.4-1.1c0.1-0.2,0.1-0.3,0.3-0.4c0.2-0.2,0.4-0.2,0.5,0c0.2,0.2,0.3,0.4,0.4,0.6c0.1,0.3,0.2,0.6,0.3,0.9 c0,0.1,0,0.1,0.1,0.1c0.5,0,0.9,0,1.4,0.1c0.1,0,0.3,0,0.4,0.1c0.1,0.1,0.1,0.1,0.1,0.2c-0.1,0.1-0.1,0.2-0.2,0.3 c-0.3,0.3-0.7,0.6-1.1,0.9c-0.1,0.1-0.1,0.1-0.1,0.2c0.1,0.4,0.3,0.8,0.3,1.2c0,0.2,0.1,0.3,0,0.5c0,0.1-0.1,0.2-0.2,0.2 c-0.2,0-0.4-0.1-0.6-0.2c-0.3-0.2-0.7-0.4-1-0.6c-0.1-0.1-0.1-0.1-0.2,0c-0.4,0.3-0.7,0.5-1.1,0.7c-0.1,0.1-0.3,0.1-0.4,0.2 c-0.1,0-0.2,0-0.2-0.2C401.7,143.3,401.7,143.3,401.7,143.2z"/>
  <path class="star" d="M335.7,31.2c0-0.3,0.1-0.6,0.2-0.9c0.1-0.2,0.1-0.4,0.2-0.6c0-0.1,0-0.1-0.1-0.2c-0.3-0.2-0.7-0.5-0.9-0.7 c-0.1-0.1-0.3-0.2-0.4-0.4c-0.1-0.2-0.1-0.3,0.1-0.4c0.2-0.1,0.4-0.1,0.5-0.1c0.4-0.1,0.8-0.1,1.2-0.1c0.1,0,0.1,0,0.1-0.1 c0.1-0.4,0.2-0.8,0.4-1.1c0.1-0.2,0.1-0.3,0.3-0.4c0.2-0.2,0.4-0.2,0.5,0c0.2,0.2,0.3,0.4,0.4,0.6c0.1,0.3,0.2,0.6,0.3,0.9 c0,0.1,0,0.1,0.1,0.1c0.5,0,0.9,0,1.4,0.1c0.1,0,0.3,0,0.4,0.1c0.1,0.1,0.1,0.1,0.1,0.2c-0.1,0.1-0.1,0.2-0.2,0.3 c-0.3,0.3-0.7,0.6-1.1,0.9c-0.1,0.1-0.1,0.1-0.1,0.2c0.1,0.4,0.3,0.8,0.3,1.2c0,0.2,0.1,0.3,0,0.5c0,0.1-0.1,0.2-0.2,0.2 c-0.2,0-0.4-0.1-0.6-0.2c-0.3-0.2-0.7-0.4-1-0.6c-0.1-0.1-0.1-0.1-0.2,0c-0.4,0.3-0.7,0.5-1.1,0.7c-0.1,0.1-0.3,0.1-0.4,0.2 c-0.1,0-0.2,0-0.2-0.2C335.7,31.3,335.7,31.3,335.7,31.2z"/>
</svg>
